<svg xmlns="http://www.w3.org/2000/svg" viewBox="0 0 133.52 182.31">
  <defs>
    <style>
      .cls-1{
        fill-rule:evenodd;
        fill: url(#MyGradient);
        <!-- stroke: #f0f0f0 ;
        stroke-width: 1px;
        stroke-location: outside; -->
      }
    </style>
    <linearGradient id="MyGradient"
                    x1="0%" y1="0%"
                    x2="0%" y2="100%">
          <!-- <stop offset="5%" stop-color="#f7f7f7" /> -->
          <stop offset="25%" stop-color="#D0D0D0" />
          <stop offset="95%" stop-color="#f7f7f7" />
    </linearGradient>
  </defs>
  <title>000Fichier 1</title>
      <path class="cls-1" d="M69.43,36.68c.31-.84.67-1.67.91-2.53.44-1.59.8-3.21,1.22-4.8.51-2,1-3.94,1.58-5.9.63-2.32,1.32-4.61,1.87-6.95.26-1.1.22-2.28.39-3.41s.45-2.19.68-3.28c0-.14.12-.3.08-.42a5.6,5.6,0,0,1,.38-3A16,16,0,0,1,78.7,1.72c1.33-2,3.91-2.43,5.5-.27a13.63,13.63,0,0,1,2.4,7.79c.09,2.2.25,4.4.21,6.6a35.36,35.36,0,0,1-.52,4.35c-.15,1.11-.29,2.23-.52,3.32a13.19,13.19,0,0,1-1,3.47,9.29,9.29,0,0,0-1,3.22c-.25,2-.29,4.05-.36,6.08-.05,1.21,0,2.42,0,3.62a12.48,12.48,0,0,0,.72,4.88,8.92,8.92,0,0,1,.38,1.66l.41,0c.44-1.36.87-2.72,1.32-4.07a22.73,22.73,0,0,1,1.4-3.86,5.8,5.8,0,0,1,2.15-1.8,2.65,2.65,0,0,1,3.15.86c2,2.43,2.13,5.27,1.67,8.13a43.62,43.62,0,0,1-1.6,5.9c-.29.9-.92,1.68-1.19,2.58-.58,1.95-1.06,3.93-1.52,5.91-.33,1.44-.56,2.89-.86,4.48l1.89.1c2.08.09,4.16.2,6.25.26,2.81.08,5.63.11,8.45.17.8,0,1.6.12,2.4.1,3.07-.1,6.13-.26,9.2-.33,2,0,3.92,0,5.88,0,1.18,0,2.36-.27,3.54-.29s2.16-.4,3.3.12A3.4,3.4,0,0,1,132,66.34c1.22,2.23,1.15,4.71,1.31,7.14.05.83.11,1.66.1,2.49,0,2,0,4-.18,6-.17,2.52-.6,5-.64,7.55,0,2.79.22,5.59.33,8.38.08,1.87.09,3.75.17,5.63.13,2.95.39,5.89.42,8.84,0,3.49-.15,7-.18,10.47,0,2.65.07,5.3.07,8,0,3.85.25,7.71-.39,11.53a7.38,7.38,0,0,1-2.66,4.33c-2.88,2.51-5.63,5.17-8.62,7.54a23.69,23.69,0,0,1-5.1,2.71,4.38,4.38,0,0,1-4-.56,2.27,2.27,0,0,1-.17-3.81c2-1.7,4-3.35,6-5.14a29.4,29.4,0,0,0,3.61-4,11.26,11.26,0,0,0,1.53-3.27,23,23,0,0,0,1-4.47,43.94,43.94,0,0,0,.13-5.26c0-3.55-.1-7.09-.13-10.63s0-7.08-.06-10.61c0-2.68.06-5.36,0-8,0-1.87-.31-3.74-.32-5.61,0-2.47.15-4.93.25-7.4.08-1.7.2-3.39.3-5.08,0-.24.06-.48.1-.71.17-.94.44-1.89-.68-2.69a8.75,8.75,0,0,0-1.33.71c-2.52,1.86-5,3.76-7.51,5.62q-2.37,1.77-4.79,3.45c-3,2.1-6,4.17-9.06,6.26L98.4,97.8a3.12,3.12,0,0,0-1.55,3c.22,3.53.46,7.07.5,10.61s-.17,7.28-.2,10.92c0,3.16,0,6.32.08,9.47,0,2.39.32,4.77.28,7.15-.05,3.18-.3,6.35-.46,9.53a46.81,46.81,0,0,0-.27,7.37c.38,3.39,0,6.73,0,10.09,0,2.29.06,4.58,0,6.87a19.63,19.63,0,0,1-1.88,7.66,2.76,2.76,0,0,1-3,1.81,2.94,2.94,0,0,1-2.38-2.6c-.32-2.14-.54-4.3-.75-6.46-.16-1.66-.26-3.33-.35-5-.2-3.44-.42-6.88-.55-10.32-.07-1.91,0-3.83.06-5.75,0-2.82.08-5.64.09-8.47,0-2.47,0-4.94-.05-7.42,0-1.6-.22-3.2-.25-4.81,0-2,0-4,0-5.94,0-1.78,0-3.55,0-5.32,0-2.31,0-4.62-.07-6.93,0-2,0-4.09,0-6.14a43.92,43.92,0,0,0-.13-4.45,26.85,26.85,0,0,0-.78-3c-.13-.57-.49-.67-1-.68-3.91-.06-7.82-.14-11.73-.19a1.09,1.09,0,0,0-.74.34c-1.07,1.23-2,2.55-3.15,3.74A14.35,14.35,0,0,0,67.41,108c-.5,1.39-.69,2.89-1.11,4.31s-1.06,2.78-1.43,4.21a5.78,5.78,0,0,1-2.8,3.35,3.31,3.31,0,0,1-4.29-.22c-1.06,1-1.23,2.45-1.65,3.77-.68,2.12-1.18,4.38-2.94,5.93a4.94,4.94,0,0,1-7,0,43.63,43.63,0,0,1-3.29-4,14.22,14.22,0,0,1-2-3.16,38.49,38.49,0,0,1-1.62-4.75,10.6,10.6,0,0,1-.28-1.11c-.36-1.69-.79-3.37-1.07-5.07-.41-2.56-.79-5.13-1-7.71-.15-1.68,0-3.37,0-5.29-.9.13-1.9.3-2.9.41-.49.06-1,0-1.47,0-2.74.13-5.48.42-8.21.37-3.75,0-7.5-.41-11.26-.54a11.91,11.91,0,0,0-2.8.48,1.29,1.29,0,0,0-1,1.49c.05,1.05.14,2.09.21,3.14.18,2.62.43,5.24.5,7.86.11,3.63.14,7.27.11,10.91-.05,8.09-.07,16.17-.27,24.26-.1,4.23-.63,8.44-.81,12.67-.11,2.73.06,5.48.12,8.21a2.61,2.61,0,0,0,.18.78c.21.61,1,.8,1.3.26.35-.73.84-.52,1.41-.5,1.81.1,3.62.12,5.43.2s3.8.22,5.7.33c.42,0,.83.12,1.24.13l7.7.31c2.7.12,5.4.41,8.1.37,3.54,0,7.08-.4,10.62-.55,2.44-.1,4.88-.09,7.32-.11,1.31,0,2.62-.06,3.93,0a18.69,18.69,0,0,1,2.75.5,7.33,7.33,0,0,1,3.88,1.65,2.17,2.17,0,0,1,.64,2.48c-1,3.35-3.58,4.31-6.69,4.44-2.77.12-5.55.16-8.32.25-3.28.1-6.57.36-9.84.3-4-.08-8-.48-12-.64-2.26-.09-4.53,0-6.79.05-5.81.14-11.63.36-17.44.44a11.08,11.08,0,0,1-4.87-1,4,4,0,0,1-2.46-3.63c-.07-.92-.1-1.84-.08-2.76.05-2.65,0-5.31.23-7.94a41.89,41.89,0,0,0-.27-7.84c-.28-3-.27-6-.35-9-.07-2.62-.07-5.25-.12-7.87-.07-4.18-.17-8.36-.23-12.53-.06-4.32-.13-8.64-.11-13,0-3.42.13-6.84.28-10.26a61.07,61.07,0,0,1,.6-7.28c.33-2,.87-4.1,2.73-5.3A6.51,6.51,0,0,1,6.71,89c3.72-.17,7.44-.28,11.16-.21,4.7.08,9.4.38,14.1.56,1.73.07,3.46.1,5.18.08a.94.94,0,0,0,.62-.65c.13-1.62.19-3.25.27-4.88a9.4,9.4,0,0,0,.06-1.67,31.35,31.35,0,0,0-.89-4.94c-.61-1.91-1.58-3.7-2.31-5.58a16.79,16.79,0,0,1-.63-2.56,47.87,47.87,0,0,1-1-4.82,16.35,16.35,0,0,1,.18-6.75A3.46,3.46,0,0,1,37,54.75a1.13,1.13,0,0,1,.52.1c2.36,1.44,4.2,3.2,4.45,6.21a12.83,12.83,0,0,0,1,3.28,2.28,2.28,0,0,0,.84.88c.45.32.77.23,1-.37a13.88,13.88,0,0,0,.58-6.33A11.14,11.14,0,0,0,44,54.44a14.22,14.22,0,0,1-1-3.66c-.33-1.6-.59-3.21-.84-4.82a19.86,19.86,0,0,1,.27-7c.4-2,2.65-3,4.3-2.9,2.93.27,4.2,2.29,5.4,4.52A20.43,20.43,0,0,0,53.67,43c.42.58,1.38.11,1.58-.82a21.53,21.53,0,0,0,.43-3.08,22.66,22.66,0,0,0-.07-3.19c-.15-1.84-.45-3.66-.54-5.49-.1-2.09,0-4.18,0-6.28,0-1.24,0-2.48-.08-3.72a10.4,10.4,0,0,1,1.36-6.1,4,4,0,0,1,4-2.18,6.39,6.39,0,0,1,3.34,1.5c.54.38.75,1.31,1,2,.65,2.12,1.33,4.25,1.81,6.41.52,2.36.86,4.77,1.25,7.17.34,2.11.63,4.24,1,6.35a4.91,4.91,0,0,0,.44,1ZM84.7,74.06c-.54,0-1,.08-1.36.09a49.85,49.85,0,0,1-5.86,0,13.92,13.92,0,0,1-6.14-1.78,3.68,3.68,0,0,1-1.93-3.24,4.43,4.43,0,0,1,3.44-3.91,54.9,54.9,0,0,1,6.26-.66c2.4-.1,4.81,0,7.21,0,.81,0,.87-.45,1-1s.16-1.17.24-1.76c0-.32.09-.63.13-1a8.2,8.2,0,0,1,.28-1.88c.72-1.75,1.59-3.44,2.3-5.19A43.29,43.29,0,0,0,92,49c.36-1.31.42-2.7.65-4A16.52,16.52,0,0,0,92,38.43a1.12,1.12,0,0,0-1.17-.92,3.41,3.41,0,0,0-3.26,2.41c-.69,2.28-1.38,4.55-2.09,6.81-.42,1.33-1.53,1.9-2.24,1.18a3.06,3.06,0,0,1-.85-1.43c-.38-2-.68-3.95-.95-5.94a19.81,19.81,0,0,1-.19-2.88c0-1.53.1-3,.19-4.58a12.45,12.45,0,0,1,.23-2.37c.32-1.22.83-2.39,1.16-3.61.39-1.46.63-3,1-4.42.93-3.54.89-7.16,1-10.77.07-1.94-.12-3.9-.19-5.85a.8.8,0,0,0,0-.27A25,25,0,0,0,83.71,3a3.86,3.86,0,0,0-1.19-1.63,2.21,2.21,0,0,0-3.23.75,11.22,11.22,0,0,0-2,5,58.86,58.86,0,0,1-1.18,6.53C75.57,16.3,75,19,74.42,21.59c-.46,2.06-.94,4.13-1.52,6.17-.88,3.07-1.84,6.11-2.79,9.14a3.89,3.89,0,0,1-1.56,2.32,1.19,1.19,0,0,1-1.83-.72c-.43-3.11-.83-6.22-1.27-9.32-.47-3.32-.85-6.65-1.51-9.93-.35-1.73-.52-3.61-2.19-4.92-1.12-.88-2.17-1.39-3.47-.81a3.45,3.45,0,0,0-2,2.91c-.26,2.21-.44,4.42-.65,6.63a2,2,0,0,0,.07.42c.08,1.05.19,2.1.24,3.16.07,1.57.1,3.14.16,4.71.08,2,.19,4.07.26,6.1a13.66,13.66,0,0,1-.06,2.48c-.22,1.48.24,3.08-.74,4.44-.3.42-.87.83-.86,1.24,0,.73-.52.83-.87.88a1.51,1.51,0,0,1-1-.52,7.66,7.66,0,0,1-1.6-2.89,11.88,11.88,0,0,0-3.31-5.24c-1.35-1.18-3.21-1.41-4.16.47a22.33,22.33,0,0,0-.92,2.76c-.55,1.62,0,3.22.14,4.81a36.8,36.8,0,0,0,.81,4A35.69,35.69,0,0,0,45,54.57a29.91,29.91,0,0,1,1.21,6.29,6.88,6.88,0,0,1-.93,4.5c-.38.63-.75,1.26-1.16,1.88-.12.17-.43.4-.55.35a5.86,5.86,0,0,1-1.76-.9c-1.12-1-1-2.53-1.3-3.88a23.81,23.81,0,0,0-.64-3.91,5.89,5.89,0,0,0-2-2.88c-1.46-.9-3.12,0-3.63,2a16.89,16.89,0,0,0-.17,5.21,16.88,16.88,0,0,0,.46,3.7c1,3.39,2.14,6.73,3.21,10.1a14.48,14.48,0,0,1,1.09,3.91c0,2.93-.26,5.87-.45,8.8-.16,2.33-.45,4.65-.54,7a74.07,74.07,0,0,0-.07,8.16c.17,2.53.74,5,1.16,7.54a33.07,33.07,0,0,0,4.53,12.45,14.78,14.78,0,0,0,3.24,3.92,3.7,3.7,0,0,0,3,1.18,4,4,0,0,0,3.2-2.85c.56-1.43.94-2.92,1.38-4.4A13,13,0,0,0,55,120a1.54,1.54,0,0,1,1.13-1.42,9.68,9.68,0,0,1,2.41,0,1.18,1.18,0,0,0,1.86,1,5.12,5.12,0,0,0,2.6-2.94c.63-2.27,1.31-4.54,1.71-6.86a9.21,9.21,0,0,1,2.05-5c1.41-1.53,2.7-3.18,4-4.79a56.65,56.65,0,0,0,3.64-4.58c1.47-2.25,2.79-4.61,4.08-7,1.1-2,2.15-4,3.08-6.09S83.2,78.3,84,76.26C84.24,75.58,84.43,74.87,84.7,74.06Zm31.53.3c0-.09,0-.17-.07-.25-.53,0-1.06,0-1.58,0-1.79.08-3.58.26-5.36.22-3.37-.07-6.73-.32-10.1-.43-3.07-.1-6.15-.18-9.22-.15s-3.09.06-4,2.88a51.49,51.49,0,0,1-5.28,11.63c-.37.6-.7,1.22-1.08,1.89,2.81,0,5.49.14,8.15,0a16.5,16.5,0,0,0,8.11-2.19c3.31-2.12,6.65-4.17,10-6.29,1.45-.93,2.85-1.94,4.27-2.91,1-.72,2.1-1.44,3.15-2.18Z"/>
</svg>
